<svg className="arcan-logo" viewBox="0 0 480 80">
  <path d="M479.454,48.577l.344-.533,.202-.313-.037-.371-.454-4.584,.316-.339-.287-.645-.23-.517-.058-.593-.005-.052-.01-.051-.159-.802,.064-.845,.003-.04v-.04c0-.096-.011-.193-.036-.315l-.115-.554,.258-.502c.074-.145,.156-.338,.156-.585v-.157l-.045-.15-.377-1.255-.067-1.047-.01-.161-.057-.151-.118-.309v-2.237l.247-1.465,.015-.088v-.484l-.256-.32-.741-.866,.822-.988,.211-.254,.031-.329c.004-.042,.009-.109,.009-.211v-1.381l-.087-1.421-.13-.246,.099-3.295,.091-.25,.247-.677-.536-.482-.244-.219,.453-1.054c.036-.085,.077-.178,.125-.284l.109-.241-.017-.264-.212-3.376,.091-.286c.356-1.12,.615-1.937,.693-2.256l.031-.125v-.128c0-.397-.15-.827-.554-1.601l-.021-.041c-.324-.654-.915-1.035-1.615-1.035-.278,0-.606,.057-2.556,.82l-.07,.025-.027,.01c-1.722,.602-2.449,.868-2.682,.981l-.086,.042-.077,.056c-.313,.226-.537,.553-.685,.998l-.051,.151-.144,.429,.209,.402,.577,1.108c.071,.137,.142,.281,.215,.439l.147,.315c.002,.179,.003,.403,.003,.438v.201s.073,.188,.073,.188l.22,.561-.099,.237,.149,1.214,.169,.814c.048,.23,.154,.639,.346,1.361l.045,.171,.069,1.791,.111,1.863-.114,2.885-.099,.251c-.083,.21-.088,.387-.085,.501l.002,.059,.008,.058,.053,.382-.127,.365c-.083,.237-.125,.482-.125,.729s.033,.507,.099,.771l.113,.454-.15,.444c-.147,.433-.174,.596-.174,.759,0,.177,.032,.372,.21,.943l.083,.265-.067,1.581-.007,.165,.043,.159,.14,.517,1.122,4.135,.431-3.355-.878,5.405-.031,.19,.038,.189,.29,1.452-.69,.285-.269,1.355-.041,.209-2.002-1.377-1.601-1.111,.555-.706-1.192-.577c-.427-.207-.881-.532-1.348-.966l-.066-.061-.075-.049-2.715-1.783-.084-.074c-1.166-1.024-1.867-1.628-2.23-1.884l-.87-.613-.211-.149-.256-.036-.474-.066-1.279-.96-.224-.168-.277-.036-.826-.108-.219-.473-.113-.244-.215-.161-1.469-1.102-1.059-.92-.03-.026-.032-.024-.833-.62-.114-.132c-.453-.522-.787-.835-1.086-1.013l-.028-.016-.028-.015-1.135-.59-.093-.067c-.196-.14-.627-.476-1.58-1.284-.132-.111-.402-.327-.813-.651l-.363-.286-.23-.181-.29-.038-1.372-.182-.318-.964c-.129-.392-.446-.694-1.063-1.181l-3.705-2.964c-.175-.138-.287-.234-.358-.298l-.188-.168-.128-.218c-.279-.476-.749-.932-1.397-1.355l-.055-.035c-.586-.352-1.407-.983-2.458-1.885-.851-.728-1.242-1.14-1.421-1.357l-.101-.123-.031-.057-.359-.671-.751,.121-.483,.078-.564-.486c-.155-.133-.334-.265-.533-.393l-.288-.185-.442-.68-.195-.3-.337-.121-1.265-.456,.242-.635-.663-.479-.641-.464,.023-.167-1.056-1.213h-.447l-.05-.106-.387-.827-.877,.255c-.591,.172-1.41,.426-1.953,.655l-.027,.011-.026,.013-.055,.027-.031,.015-.03,.017c-.16,.091-1.325,.731-2.196,1.209l-.737,.374-.133,.068-.11,.102-.239,.222-.313,.111c-.343,.122-.767,.284-1.06,.482l-.042,.028-.131,.086-.101,.121c-.151,.18-.33,.483-.33,.902,0,.138,.019,.274,.056,.405l.057,.206v.897l.914,.132,.69,.1-.286,2.924-.016,.159,.032,.156,.572,2.832-.427,.205,.063,.734c.047,.55,.071,.959,.071,1.214v.374l-.011,.092c-.017,.15-.026,.271-.027,.336v.057s.004,.058,.004,.058c.016,.174,.088,.617,.421,.964l.547,.572-.123,.781c-.094,.601-.136,.977-.136,1.218,0,.31,.013,.67,.039,1.1l.002,.03,.003,.03,.03,.259v1.116l.085,.2,.527,1.242-.455,.711c-.132,.205-.193,.417-.193,.667,0,.13,.015,.293,.048,.529l.014,.097,.031,.093,.009,.027,.021,.135c.025,.164,.064,.488,.102,1.102l.003,.055c.022,.611,.092,1.15,.213,1.634l.103,.41-.093,.334-.029,.106-.007,.11-.072,1.097-.011,.072c-.195,1.23-.302,1.999-.328,2.352l-.063,.843,.231,.072,.155,1.008,.123,.755-.03,.072-.082,.197v.213c0,.176,.037,.521,.286,.85l.75,.996-.786,.971-.345,.419-.243,.295v1.411l-.161,.717-.015,.067-.006,.068-.066,.714-.038,.137c-.322,1.163-.366,1.415-.381,1.56l-.006,.058v.058c0,.334,.129,.647,.255,.91l.362,.755,.82-.172c.561-.118,.963-.224,1.265-.332,1.414-.497,2.344-.823,2.953-1.035l.753-.262,.675,.452,.619-.675c.504-.549,.946-1.097,.826-1.763l-.009-.048-.013-.047-.104-.376-.078-.305,.029-.306,.005-.05v-.051c0-.291-.047-.597-.144-.936l-.02-.076c-.064-.263-.158-.8-.212-1.768l-.004-.074-.014-.073-.167-.844v-.156c-.003-1.631-.03-1.802-.044-1.894l-.009-.051c-.043-.229-.11-.491-.209-.812l-.35-1.136,.52-.35-.383-.826-.078-.168,.097-.989,.024-.244-.085-.23-.149-.402,.026-.518,.005-.093-.011-.092-.062-.497,.286-.545c.224-.425,.346-.716,.347-1.03v-.022s0-.022,0-.022c-.005-.139-.044-.617-.218-2.569l-.006-.069,.002-.412c.01-.215,.06-.489,.149-.816l.224-.83-.763-.395-.061-.032,.414-1.287c.028-.086,.061-.205,.07-.361l.008-.131-.024-.129c-.038-.202-.138-.655-.247-1.141l-.058-.26,.167-1.51,.033-.295-.124-.269c-.167-.363-.291-.619-.387-.806l-.269-.528,.141-.577c.065-.265,.115-.634,.157-1.162l.015-.192,.06-.183c.056-.169,.174-.478,.418-.982l.766-1.585,1.504,.915c.425,.258,.891,.506,1.425,.759l.414,.195,.247,.385c.235,.365,.67,.666,1.411,.974l.984,.41v.42s.495,.314,.495,.314c.283,.18,.979,.684,2.686,2.066l.073,.056c.386,.285,.693,.531,.929,.743l.067,.06,.072,.087,.32,.384h.3c.006,.002,.012,.004,.018,.006l.36,.11,.272,.257c.295,.279,.619,.56,.988,.858,.185,.153,.391,.327,.609,.516l.334,.289,.441-.032,.402-.029,.525,.68c.144,.185,.341,.402,.642,.703,.28,.29,.472,.484,.684,.608l.035,.021,.037,.025c.495,.329,.885,.649,1.158,.952l.022,.025,.024,.023c.347,.339,.927,.703,1.827,1.144l.104,.051,.096,.066c.397,.272,.728,.492,1.013,.671l.459,.289,.18,.487,.109,.294,.25,.188,4.268,3.212,.196,.309,.269,.423,.205,.026,.407,.591c.278,.406,.802,.708,1.555,.897l1.801,.451-.123,.297-.336,.811,.732,.486c.407,.27,.746,.519,.985,.723l.022,.022,.056,.043c.064,.049,.163,.12,.375,.248l1.415,.855-.567,.871,1.023,.549c.683,.366,1.05,.621,1.239,.77l.069,.055,.063,.062c.315,.311,.78,.802,1.384,1.459l.237,.258,.344,.067,.909,.177,.369,.584c.236,.374,.648,.774,1.02,1.116l.134,.124,.264,.387,.055,.081,.069,.07,.886,.892,.052,.065c.479,.596,1.006,.964,1.608,1.122l.012,.003,.018,.004,.318,.076,.306-.115,.961-.361,.215,.806,.227,.853,.88-.064c.958-.07,1.984-.357,3.136-.879,1.09-.479,2.163-1.036,2.163-2.051v-.237l-.052-.16c-.025-.078-.187-.59-.313-.988Z" />
  <path d="M132.069,71.205l-.217-.183-.152-.237c-1.161-1.812-1.654-2.388-1.924-2.664l-.034-.036c-.543-.575-1.085-1.028-1.602-1.335l-.897-.533,.002-.99c0-.056-.003-.118-.01-.181-.109-1.039-1.149-1.967-3.09-2.759l-1.147-.468,.002-.248,.004-.423-.292-.34-4.706-5.476-.071-.082-.084-.069c-.6-.493-1.065-.976-1.42-1.476-.241-.348-.992-1.23-4.625-4.91-1.626-1.593-2.363-2.443-2.697-2.879l-.23-.3-.088-.357c-.566-2.286-2.71-4.586-6.373-6.837l-1.154-2.389-1.093-1.164-3.145-3.351-.049-.053-.055-.047-1.319-1.114-.225-.778c-.113-.375-.445-1.479-2.219-2.742l-.469-.334-.194-.529c-.12-.328-.25-.57-.407-.76l-.025-.03-1.511-1.957-.928-1.236-.03-.039-.033-.037c-.187-.212-.473-.423-1.442-.931l-.833-.436-.13-.899c-.06-.418-.297-.895-1.425-2.339-1.109-1.448-2.148-2.328-3.173-2.683l-1.097-.381-.216-2.057c-.042-.395-.224-1.108-1.276-3.127l-.093-.179-.148-.141c-1.011-.968-1.436-1.65-1.614-2.051l-.062-.139-.036-.145c-.136-.542-.444-1.31-.972-2.415l-.088-.185-.042-.195c-.696-3.212-2.752-3.559-3.604-3.559-.847,0-1.763,.227-2.723,.674l-.057,.026c-.354,.152-.674,.356-.934,.598l-.392,.366-.562,.015c-.49,.012-.905,.215-1.27,.62l-.694,.771-.428-.181-.438-.185-.404,.175-5.159,2.238-.629,.273,.075,.712,.16,1.519c.007,.065,.017,.126,.031,.187l.16,.724-.442,.54-.28,.347c-.475,.573-.99,1.03-1.524,1.348l-.513,.305,.066,.625,.065,.617-.121,.061-.575,.29,.071,.671,.026,.245-.569,.932c-.456,.747-.588,1.001-.653,1.138l-.03,.06c-.499,.965-.751,1.395-.874,1.583l-.049,.075-.06,.07c-.557,.647-.767,.935-.839,1.268l-.005,.023-.004,.024-.041,.247-.023,.137,.015,.142,.036,.347-.469,.475c-.069,.071-.257,.255-.319,.317l-.03,.026c-.062,.053-.124,.115-.187,.184l-.946,1.032-.197-.157-.635,.634c-.269,.268-.529,.56-.773,.868l-.358,.452,.159,.38-1.105,.631-.768,.439,.411,.868,.003,.006c-.557,.539-1.387,1.343-1.432,1.388-.146,.149-.243,.319-.312,.546l-.142,.468-1.278,.883-.121,.084-.089,.117-3.817,5.061-.07,.069c-2.582,2.551-3.12,3.189-3.301,3.461l-.019,.029-.02,.035c-.495,.882-.772,1.349-.917,1.586l-.185,.304-.311,.176c-1.78,1.009-1.989,1.186-2.101,1.281l-.02,.017-.019,.018c-.191,.182-.326,.425-.425,.765l-.149,.513-.447,.279c-.958,.598-1.521,1.046-1.825,1.455l-1.136,1.471-.298,.142c-.125,.06-.317,.148-.6,.266l-.175,1.814-4.201,4.89-5.899,6.104-1.496,1.292-.023,.02-.021,.021c-.16,.158-.265,.351-.32,.591l-.163,.699-.648,.279-.21,.09-.142,.175-3.218,3.966-.116,.092c-.278,.221-.937,.683-2.504,1.632l-.048,.028c-1.274,.72-1.943,1.477-2.033,2.308l-.085,.788-.698,.335c-1.045,.501-1.26,.654-1.39,.768-1.254,1.134-1.837,1.542-2.074,1.686l-.105,.064-1.864,.723-.084,.033-.075,.047c-.166,.104-.345,.27-.77,.809l-1.117,1.419,1.906,.34c.919,.164,1.747,.459,2.534,.903l.269,.152h.335l.043-.003c.32-.024,.605-.037,.845-.037l.365,.008,.244,.082c1.083,.365,1.392,.429,1.644,.429,.471,0,1.03-.156,1.811-.505,.171-.076,.686-.263,2.188-.645l.364-.093,.195-.31,.023-.036,.254-.413-.146-.388,1.264-.598c.22-.104,.728-.284,1.9-.555l.466-.108,.184-.432,1.788-4.187,.583-.232,.187-.075,.137-.143,.572-.593,.012-.012,.011-.013c.571-.638,1.12-1.242,1.632-1.795l.038-.041,.033-.046,2.811-3.905,.119-.103c.136-.118,.411-.344,.952-.749l.507-.38-.148-.571,.979-1.143c1.135-1.325,2.003-2.307,2.654-3.002l.067-.072,.076-.061c.992-.795,1.8-1.633,2.402-2.491,.088-.12,.36-.432,.756-.865l.025-.027,.023-.029,3.814-4.917,.038-.049,.031-.054c.259-.448,.497-.907,.707-1.363l.051-.11,.069-.1c.16-.231,.537-.708,1.424-1.659l.063-.068,.049-.08,.583-.956,1.27-.889,.109-.076,.082-.104,1.589-1.999,.021-.027,.019-.028c.336-.494,.529-1.005,.592-1.562l.086-.776,.684-.335c1.725-.846,3.402-2.348,5.127-4.593l.055-.068c.891-1.051,1.582-2.132,2.037-3.196l.258-.604,1.733-1.624,1.033-.63c.742-.452,1.331-1.034,1.802-1.779l.267-.423,.338-.173c.106-.054,.226-.107,.36-.158l.408-.156,.14-.413,.004-.01,.005-.015c.088-.281,.335-.784,1.017-1.587l.013-.016,.012-.016,3.356-4.338,.081-.076c.71-.661,1.344-1.287,1.887-1.858l.417-.44,.893-1.132-.046-.275,.118-.355c.065-.196,.168-.407,.306-.629l1.009-1.625,1.479,1.513c.136,.14,.27,.282,.401,.426l.03,.033,.032,.031,1.144,1.09,1.359,2.185,.136,.218,.212,.147,2.226,1.539,1.035,1.263,.052,.063,.06,.056,.892,.836,.469,1.299,.086,.238,.178,.187c.191,.2,.67,.605,1.83,1.545l.054,.044,.051,.048c.122,.115,.368,.363,.837,.884l.398,.442,.452-.034,.565,1.034c.24,.44,.598,.891,1.065,1.34,.807,.759,1.393,1.604,1.751,2.522l.1,.256,.205,.192,.812,.759,1.842,1.751,.045,.043,.049,.038,1.401,1.088,.45,.787c.123,.212,.344,.524,1.147,1.412l.403,.446,.563-.049,1.635,1.24,.738,1.391,.544,1.052,.007,.014,.008,.014c.355,.644,.845,1.21,1.455,1.68l.803,.618,.076,.074c.465,.451,1.12,1.131,1.895,1.968l.046,.048c.36,.365,.772,.672,1.274,.955l.508,.296,.309,.622,.026,.052,.031,.049c.182,.292,.304,.497,.385,.638l.189,.326,.036,.344,.359,.314,4.656,4.082,.156,.28c.182,.328,.516,.999,1.078,2.343l.068,.163,.114,.139,1.047,1.277,.096,.204c.776,1.648,1.105,2.15,1.325,2.425l.014,.018,.015,.017c.159,.178,.331,.352,.526,.535l2.665,2.496-7.859,.481-3.058,.12h-.033s-.033,.005-.033,.005l-3.746,.385-1.551-.256-.113-.019-.112,.005-1.732,.077-1.75-.115-.08-.005-.078,.007-1.786,.149-1.36-.218-.087-.014h-3.817l-2.228-.272-.223-.027-.206,.063-3.955,1.206-.335-.041c-.764-.094-1.483-.41-2.136-.939l-.175-.142-.21-.069-.113-.037-.117-.014c-.935-.106-2.319-.196-4.23-.277l-.122-.005-.12-.023c-1.872-.36-3.335-.549-4.475-.579h-.014s-.014,0-.014,0h-5.957c-1.006,0-1.897,.036-2.647,.108l-.765,.073-.435-.411-.388-.366-.5,.039-1.72,.134-.39-.167c-.69-.296-1.079-.33-1.311-.33-.277,0-.682,.073-1.759,.428l-.187,.061-5.485,.305-2.854-.572c-.431-.095-1.103-.142-2.095-.142h-.442l-.256,.287c-.358,.34-.83,.78-1.413,1.317l-.009,.008-.013,.012-.011,.011-.011,.011c-.365,.379-.681,.857-.966,1.462l-.108,.23-.181,.175c-.481,.465-.791,.886-.734,1.429,.045,.432,.259,.93,.692,1.616l.338,.534,.607,.033c.505,.028,.952,.042,1.328,.042,.417,0,.656-.028,.756-.043l.647-.085,.361,.155,.204,.087,.214,.006,6.011,.16h.042s.042-.001,.042-.001c1.045-.055,2.052-.165,2.993-.329l.049-.008c1.485-.225,2.531-.341,3.093-.341,.79,0,1.74,.065,2.825,.192,.866,.087,1.559,.128,2.137,.128h.036c.127-.005,.313-.019,1.107-.084,2.617-.229,2.87-.291,2.993-.32l.068-.016,.064-.025,.045-.018,.047-.015c.942-.305,1.903-.541,2.857-.703l.624-.105,1.658,1.06,.318,.203,.357-.018c1.084-.054,2.32-.176,3.676-.362l.049-.007c1.719-.274,2.457-.374,2.776-.409l.196-.021,.202,.028c.204,.028,.739,.108,2.014,.32l.155,.026,.151-.018,1.838-.224,4.051,.542,.094,.013,.093-.004,.942-.038h.08c.454-.002,1.339-.016,2.61-.041l3.119-.04h.04s.04-.004,.04-.004l1.735-.156h1.781l.03-.002,2.035-.115,1.868,.191,.125,.013,.122-.016c2.477-.327,3.223-.385,3.447-.391h.045c.864,0,2.089,.215,3.63,.639,1.268,.356,2.288,.569,3.025,.632l.069,.007c1.226,.145,2.464,.456,3.664,.924l.053,.021,.052,.024c.918,.423,1.679,.63,2.322,.63,.158,0,.353-.024,.884-.146l1.635-.377,.695,1.025c.316,.466,.706,1.024,1.229,1.757l.085,.119,.11,.096c.578,.505,.96,.964,1.136,1.366,.341,.78,1.192,1.975,2.601,3.652l.483,.574,.674-.171c2.959-.749,3.961-.901,4.295-.925l.092-.004c1.686-.035,2.165-.084,2.38-.124l.113-.019c.647-.093,1.682-.333,3.138-.729l.931-.253-.284-.974-.116-.397,.648-.324,1.24-.62-1.088-1.064c-.541-.53-1.705-1.544-3.661-3.191Z" />
  <path d="M399.663,53.043l-.148-.125-.104-.162c-.792-1.236-1.128-1.629-1.312-1.817l-.023-.024c-.37-.392-.74-.701-1.092-.911l-.612-.363,.002-.675c0-.038-.002-.08-.007-.123-.074-.708-.784-1.342-2.108-1.882l-.782-.319,.002-.169,.003-.288-.199-.232-3.21-3.735-.048-.056-.057-.047c-.41-.336-.726-.665-.969-1.007-.164-.237-.677-.839-3.155-3.349-1.109-1.086-1.612-1.667-1.84-1.964l-.157-.205-.06-.244c-.386-1.559-1.848-3.128-4.347-4.663l-.787-1.63-.745-.794-2.145-2.286-.034-.036-.038-.032-.9-.76-.154-.531c-.077-.256-.304-1.009-1.514-1.87l-.32-.228-.132-.361c-.082-.224-.17-.389-.277-.519l-.017-.02-1.031-1.335-.633-.843-.02-.027-.022-.025c-.128-.145-.322-.289-.984-.635l-.568-.298-.089-.613c-.041-.285-.203-.61-.972-1.596-.756-.988-1.465-1.588-2.165-1.83l-.749-.26-.147-1.403c-.028-.27-.153-.756-.871-2.133l-.064-.122-.101-.096c-.69-.66-.98-1.125-1.101-1.399l-.042-.095-.025-.099c-.093-.37-.303-.893-.663-1.647l-.06-.126-.029-.133c-.474-2.191-1.877-2.427-2.458-2.427-.578,0-1.202,.155-1.857,.46l-.039,.017c-.242,.104-.46,.242-.637,.408l-.267,.25-.383,.01c-.334,.008-.618,.147-.866,.423l-.473,.526-.292-.123-.298-.126-.276,.12-3.519,1.527-.429,.186,.051,.486,.109,1.036c.005,.044,.012,.086,.021,.128l.109,.494-.301,.368-.191,.237c-.324,.391-.675,.702-1.04,.919l-.35,.208,.045,.426,.044,.421-.083,.042-.392,.198,.048,.458,.018,.167-.388,.636c-.311,.51-.401,.683-.446,.776l-.02,.041c-.34,.658-.512,.952-.596,1.08l-.033,.051-.041,.048c-.38,.441-.523,.638-.572,.865l-.003,.016-.003,.016-.028,.168-.016,.093,.01,.097,.025,.237-.32,.324c-.047,.048-.175,.174-.217,.216l-.021,.018c-.042,.036-.085,.078-.128,.125l-.645,.704-.134-.107-.433,.432c-.183,.183-.361,.382-.527,.592l-.244,.308,.108,.259-.753,.43-.524,.299,.281,.592,.002,.004c-.38,.368-.946,.916-.977,.946-.1,.101-.166,.218-.213,.372l-.097,.319-.872,.602-.083,.057-.06,.08-2.604,3.452-.048,.047c-1.761,1.74-2.128,2.176-2.251,2.361l-.013,.02-.014,.024c-.338,.601-.527,.92-.625,1.082l-.126,.208-.212,.12c-1.214,.689-1.356,.809-1.433,.874l-.014,.012-.013,.012c-.131,.124-.223,.29-.29,.522l-.101,.35-.305,.191c-.653,.408-1.037,.714-1.245,.992l-.775,1.003-.203,.097c-.085,.041-.216,.101-.409,.182l-.12,1.237-2.865,3.336-4.024,4.164-1.021,.881-.016,.013-.015,.014c-.109,.108-.181,.24-.219,.403l-.111,.477-.442,.19-.143,.062-.097,.119-2.195,2.705-.079,.063c-.19,.151-.639,.466-1.708,1.113l-.033,.019c-.869,.491-1.325,1.008-1.386,1.574l-.058,.538-.476,.228c-.713,.342-.859,.446-.948,.524-.855,.774-1.253,1.052-1.415,1.15l-.072,.043-1.272,.493-.057,.022-.051,.032c-.113,.071-.236,.184-.525,.552l-.762,.968,1.3,.232c.627,.112,1.192,.313,1.728,.616l.184,.104h.229l.03-.002c.219-.017,.413-.025,.577-.025l.249,.006,.166,.056c.739,.249,.949,.293,1.121,.293,.321,0,.702-.106,1.235-.345,.117-.052,.468-.179,1.492-.44l.248-.063,.133-.212,.016-.025,.174-.282-.1-.264,.862-.408c.15-.071,.497-.194,1.296-.379l.318-.073,.126-.295,1.219-2.856,.398-.158,.128-.051,.094-.097,.39-.404,.008-.008,.008-.009c.389-.435,.764-.847,1.113-1.224l.026-.028,.022-.031,1.917-2.663,.081-.07c.093-.081,.28-.234,.649-.511l.346-.259-.101-.39,.668-.78c.774-.904,1.366-1.573,1.811-2.048l.046-.049,.052-.041c.677-.542,1.228-1.114,1.638-1.699,.06-.082,.246-.295,.516-.59l.017-.019,.016-.02,2.601-3.354,.026-.033,.021-.037c.177-.306,.339-.618,.482-.929l.034-.075,.047-.068c.109-.158,.366-.483,.971-1.132l.043-.046,.033-.054,.397-.652,.866-.607,.074-.052,.056-.071,1.084-1.364,.015-.018,.013-.019c.229-.337,.361-.686,.404-1.065l.059-.53,.467-.229c1.177-.577,2.321-1.602,3.497-3.133l.038-.047c.608-.717,1.079-1.454,1.39-2.18l.176-.412,1.182-1.107,.705-.43c.506-.308,.908-.705,1.229-1.213l.182-.289,.231-.118c.072-.037,.154-.073,.245-.108l.278-.106,.095-.282,.002-.007,.003-.01c.06-.191,.229-.535,.693-1.083l.009-.011,.009-.011,2.289-2.959,.055-.052c.484-.451,.917-.878,1.287-1.268l.284-.3,.609-.772-.031-.188,.081-.242c.044-.134,.115-.278,.209-.429l.688-1.108,1.009,1.032c.093,.095,.184,.192,.274,.291l.021,.023,.022,.021,.781,.744,.927,1.49,.093,.149,.145,.1,1.518,1.05,.706,.862,.035,.043,.041,.038,.609,.57,.32,.886,.059,.162,.121,.128c.13,.137,.457,.413,1.249,1.054l.037,.03,.035,.032c.083,.078,.251,.248,.571,.603l.271,.301,.308-.023,.385,.705c.163,.3,.408,.608,.727,.914,.551,.518,.95,1.094,1.195,1.721l.068,.175,.14,.131,.554,.518,1.257,1.194,.031,.029,.034,.026,.956,.742,.307,.537c.084,.144,.234,.357,.782,.963l.275,.304,.384-.033,1.115,.845,.503,.949,.371,.718,.005,.009,.005,.009c.242,.44,.576,.825,.993,1.146l.548,.422,.052,.05c.317,.308,.764,.772,1.292,1.342l.031,.033c.246,.249,.526,.459,.869,.651l.346,.202,.211,.424,.018,.035,.021,.034c.124,.199,.207,.339,.263,.435l.129,.223,.025,.235,.245,.214,3.176,2.784,.106,.191c.124,.223,.352,.682,.735,1.598l.046,.111,.078,.095,.714,.871,.065,.139c.529,1.124,.754,1.467,.904,1.654l.01,.012,.01,.012c.109,.121,.226,.24,.359,.365l1.818,1.702-5.36,.328-2.086,.082h-.022s-.022,.003-.022,.003l-2.555,.262-1.058-.174-.077-.013-.076,.003-1.181,.053-1.194-.079-.054-.004-.053,.004-1.218,.101-.927-.149-.059-.009h-2.604l-1.52-.186-.152-.019-.141,.043-2.698,.822-.229-.028c-.521-.064-1.012-.28-1.457-.641l-.119-.097-.143-.047-.077-.025-.08-.009c-.638-.072-1.582-.134-2.885-.189l-.084-.003-.082-.016c-1.277-.245-2.275-.375-3.053-.395h-.01s-.01,0-.01,0h-4.063c-.686,0-1.294,.025-1.806,.074l-.522,.05-.297-.28-.264-.25-.341,.027-1.173,.091-.266-.114c-.47-.202-.736-.225-.894-.225-.189,0-.465,.05-1.2,.292l-.127,.042-3.741,.208-1.947-.39c-.294-.065-.752-.097-1.429-.097h-.301l-.175,.195c-.244,.232-.566,.532-.964,.899l-.006,.006-.009,.008-.007,.007-.007,.008c-.249,.259-.465,.585-.659,.997l-.074,.157-.124,.119c-.328,.317-.539,.605-.5,.975,.031,.294,.177,.634,.472,1.102l.23,.365,.414,.023c.345,.019,.65,.028,.906,.028,.285,0,.447-.019,.516-.029l.442-.058,.247,.106,.139,.06,.146,.004,4.1,.109h.029s.028,0,.028,0c.713-.037,1.4-.113,2.041-.224l.033-.006c1.013-.154,1.727-.233,2.109-.233,.539,0,1.187,.044,1.927,.131,.591,.059,1.063,.087,1.458,.087h.025c.087-.003,.214-.013,.755-.057,1.785-.156,1.958-.198,2.041-.218l.046-.011,.044-.017,.031-.012,.032-.01c.643-.208,1.298-.369,1.949-.479l.426-.072,1.131,.723,.217,.139,.244-.012c.739-.037,1.583-.12,2.507-.247l.034-.005c1.172-.187,1.676-.255,1.893-.279l.134-.015,.138,.019c.139,.019,.504,.073,1.374,.218l.106,.018,.103-.013,1.253-.153,2.764,.37,.064,.009,.064-.003,.643-.026h.055c.31-.002,.913-.011,1.78-.028l2.127-.027h.028s.027-.003,.027-.003l1.183-.106h1.235s1.388-.08,1.388-.08l1.274,.13,.085,.009,.083-.011c1.69-.223,2.198-.263,2.351-.266h.031c.589,0,1.425,.147,2.476,.436,.865,.243,1.561,.388,2.063,.431l.047,.005c.836,.099,1.681,.311,2.499,.63l.036,.014,.035,.016c.626,.289,1.145,.43,1.584,.43,.108,0,.241-.016,.603-.1l1.115-.257,.474,.699c.215,.318,.482,.699,.838,1.199l.058,.081,.075,.066c.394,.344,.655,.658,.775,.932,.233,.532,.813,1.347,1.774,2.491l.329,.392,.46-.116c2.018-.511,2.702-.615,2.93-.631l.063-.003c1.15-.024,1.477-.057,1.623-.085l.077-.013c.442-.064,1.147-.227,2.141-.497l.635-.173-.194-.664-.079-.271,.442-.221,.846-.423-.742-.726c-.369-.361-1.163-1.053-2.497-2.177Z" />
  <path d="M260.946,52.088c-3.019,0-5.054-.245-7.974-.727l-1.462-.241,.218,.424-11.369-1.959-.163-.228-.361-.018c-1.456-.073-3.215-.891-5.078-1.757l-.495-.23-.015-.006c-1.854-.762-2.797-1.343-4.102-2.148-.966-.595-2.153-1.327-4.032-2.324l-.219-1.709-2.726-.298v-.729l-.432-.201c-.786-.365-1.397-.843-2.181-1.705l-.222-.244h-.36c-.271-.44-3.233-5.247-3.841-6.235l.586-.246-.18-.636c-.859-3.037-.405-5.186,1.349-6.386l.414-.284-.107-.491c-.198-.912,1.464-2.745,2.563-3.958,.593-.654,1.157-1.277,1.543-1.825,.307-.118,.76-.294,1.14-.443l.738-.287,.829-1.087c.801-.33,1.759-.799,2.44-1.195l2.545-.509,.161-.164c2.212-2.257,4.649-2.771,7.734-3.422,1.912-.403,4.077-.86,6.455-1.827,.619-.133,1.244-.272,1.871-.41,3.389-.751,6.893-1.527,9.876-1.527,.443,0,.87,.017,1.271,.052l.037,.003h.037c1.501-.02,3.159-.166,4.915-.32,2.003-.176,4.074-.358,6.027-.358,1.814,0,3.282,.159,4.489,.486l.103,.028,.335-.005c.171-.002,.348-.003,2.436-.054l2.315,.679,.145-.015c.375-.038,.678-.056,.953-.056h.07s.036-.003,.036-.003c.126-.012,.253-.018,.379-.018,1.562,0,2.718,.86,2.892,1.656,.187,.855-.805,1.469-1.443,1.769l-.127,.041c-.892,.283-1.871,.626-2.461,1.037-.303,.102-.632,.152-1.004,.152-.963,0-2.048-.342-3.097-.673-.653-.206-1.327-.418-1.972-.547l-.051-.01-5.295-.317-2.03-.621c-.496-.131-1.212-.192-2.253-.192-.954,0-1.985,.051-2.894,.097-.498,.025-.93,.046-1.266,.055-.873-.051-2.057-.119-3.199-.119-1.395,0-2.462,.1-3.262,.305-.308,.069-.689,.17-1.092,.276-1.07,.283-2.402,.634-3.328,.634-.13,0-.248-.007-.351-.021l-.187-.025-.177,.066c-1.075,.405-2.974,.932-3.985,1.106-.356,.058-1.029,.296-2.096,.678-.721,.259-1.811,.649-2.064,.678l.067,.78-2.361,.708c-2.119,.636-3.468,1.129-4.01,1.464l-4.404,2.836-.079,.102c-.281,.364-.512,.788-.736,1.199-.281,.516-.571,1.049-.897,1.323l-.266,.224v1.13l-.692,1.245-.133,4.968,1.675,1.97-.811,1.216,1.813,1.246,1.065,1.854,.759,.585,.315,.694,.099,.097c.239,.235,.554,.514,.888,.809,.552,.488,1.239,1.096,1.492,1.446l.096,.133,1.048,.593,1.583,1.54,.194,.049c.482,.122,1.134,.503,1.744,1.02l.281,.238,.359-.077c.051-.011,.103-.016,.157-.016,.569,0,1.258,.592,1.812,1.067,.081,.07,.159,.137,.235,.201l.155,.13,.199,.034c.689,.119,1.61,.367,2.584,.629,1.364,.367,2.772,.746,3.837,.852,2.106,1.22,2.809,1.296,5.279,1.565,1.164,.127,2.759,.3,5.138,.665,2.068,.381,4.278,.553,7.144,.553,1.273,0,2.561-.033,3.808-.066,1.236-.032,2.513-.065,3.765-.065,.89,0,1.688,.017,2.441,.05l.171,.008,.157-.067c1.087-.467,3.728-.97,7.065-1.347l.118-.013,.108-.049c1.52-.691,4.784-1.345,6.734-1.736l.712-.143,.016-.285c.901-.397,1.654-.598,2.243-.598,.675,0,1.102,.255,1.383,.825,.261,.681-.042,1.132-.689,1.996-.377,.504-.8,1.068-1.075,1.774-.888,.557-2.401,.587-3.745,.612-.572,.011-1.112,.021-1.621,.067l-.68,.061v.243l-4.62,.955-6.998,.256-.048,.008c-3.801,.641-8.486,1.025-12.533,1.026h-.295Z" />
  <path d="M199.575,50.229c-1.213-.59-2.303-1.351-3.173-2.375-.028-.033-.053-.066-.077-.1-.174-.061-.34-.121-.482-.174-.649-1.051-1.679-1.03-2.798-.978-.639-1.694-4.297-4.469-7.009-5.227-.311-1.999-5.858-5.239-6.69-6.166-2.077-2.193-4.579-4.635-7.283-5.676-.386-.545-1.959-1.882-2.461-2.352,1.85-.569,3.565-2.191,5.532-2.3,.123-.127,.371-.383,.494-.509,.166,.03,.506,.09,.673,.12,.532-.401,1.277-.452,1.884-.582,.367-.017,1.851-1.265,2.63-1.388,.502-.156,.984-.403,1.516-.231,.409-.159,1.473-.573,1.878-.731,.076-.13,.24-.413,.314-.541,1.311-.413,4.48-2.273,4.652-2.411,1.457-.823,4.219-2.219,2.549-4.068,.357-1.493-.653-2.268-1.725-2.624h0c-4.698-2.468-10.749-1.752-15.801-2.503-.461,.241-.94,.454-1.467,.35-2.83-.183-8.95-.266-9.803-.378-3.049-.163-4.05,.35-5.928,.111-.46,.037-6.835-.398-7.596,.217-2.556-.261-1.157-1.118-4.647-.042-.658,.127-1.261,.615-1.931,.569-2.073-.324-3.731,2.258-1.559,3.186,0,0,.957,.459,.957,.459-.014,.274-.043,.859-.057,1.136,.374,.217,1.927,1.116,2.33,1.349-.149,.222-1.943,4.024-2.217,4.004-.037,.372,.011,.936,.263,1.233,.424,1.662,.283,3.295,.086,4.936,0,0,.429,2.108,.429,2.108-.041,.519-.2,1.357-.224,2.056-.079,.819,.634,2.321,.3,3.306,0,0,0,3.002,0,3.002-.018,.166-.588,2.852-.562,3.025,.207,1.409,.344,2.763,.433,4.088l1.274,1.274-1.16,1.16c.06,2.151,.02,4.261-.027,6.442,.131,.117,.264,.232,.4,.344,.787-.127,1.474-.46,2.127-.871,.309,.027,1.036,.089,1.337,.115,1.764-1.603,3.113-1.08,3.681-4.534,.007-.041-.136-1.157-.142-1.545-.014-.903,.157-2.205-.047-3.111-.074-.331-.12-.669-.089-1.007,.116-1.249,.607-1.872,.417-3.204-.076-.53-.066-2.054-.267-2.592-.478-1.278-.214-1.694-.142-2.488,.114-1.251-.119-2.16-.153-3.373-.09-3.242-.043-6.792,0-9.945-.094-.056-.559-.336-.642-.386,.868-1.393,.755-2.419,.717-3.964-.148-.177-.491-.586-.642-.767,.381-.712,.497-1.928,.503-2.719,.678-.022,6.769-.049,7.399-.293,2.481,2.712,4.456-.993,9.592,.687,.599-.084,3.004-.433,3.732-.193,.687,.304,2.99,.132,3.726,.174,.571,.091,2.251,.538,2.819,.346,1.573,.465,3.143,.452,4.714,.97,.59,.195,1.788,1.727,1.788,1.727-.829,.78-2.036,1.833-3.118,1.941-.405,.264-2.143,1.195-2.825,1.444-1.936,1.248-1.994,1.038-4.458,1.767-1.763,.543-8.257,2.69-9.872,3.233-.662,.321-1.692,.611-2.73,.838-.051,.015-.102,.025-.154,.033-.75,.159-1.495,.285-2.103,.364-.254,.279-.415,.579-.508,.89,.825,.876,1.777,1.61,2.694,2.378l1.549,.289-.126,.676c2.537,1.364,5.233,3.772,7.11,5.383,.274-.029,1.337-.144,1.629-.175-.018,.304-.054,.923-.071,1.228,1.138,.579,1.94,1.514,3.178,1.811,1.231,1.226,2.132,1.762,3.465,2.093,.523,1.412,1.75,2.544,3.347,3.318,1.237,1.175,2.572,2.324,3.809,3.271,0,0,1.551,1.685,2.284,1.951,.561,1.176,2.3,2.354,2.504,2.871,1.417,.251,2.375,1.449,3.735,.534,1.467-.534,4.235-.703,6.234-1.287,.475-.139,.524-.785,.079-1.002Z" />
</svg>