<svg className="separator" viewBox="0 0 400 3.892">
  <path
    d="m400,1.959c-2.13-.095-4.204.224-6.322.22-2.104-.271-4.207-.144-6.321-.159-2.119.102-4.194-.31-6.32-.195-3.152.254-6.321.273-9.482.284-1.042.011-2.08.26-3.16.243,0,0-3.167.009-3.167.009-3.174-.222-6.296-.238-9.489-.192-2.12-.104-4.208-.225-6.301-.071-9.534.263-19.014.087-28.499.156-2.083-.076-4.236.246-6.323.207-3.162-.143-6.293-.238-9.496-.187-2.65-.243-5.186-.455-7.841-.254-1.604.303-3.227.295-4.78.281,0,0-3.166.005-3.166.005-2.147.175-4.144.527-6.377.295-1.711-.453-4.446-.231-6.237-.274-1.319.1-2.629-.197-3.934-.313-.493.003-1.072-.031-1.53.028-.765.222-1.66.35-2.39.298-1.39.022-4.096-.035-5.494.036-.244.02-.391.084-.669.189-.567.241-1.19.214-1.691.224-.526-.009-1.053.072-1.719-.139-.254-.091-.497-.213-.677-.239-.474-.106-3.346-.029-3.879-.048-1.111-.066-2.457.183-3.522-.192,0,0-.179-.086-.179-.086,0,0-.357-.173-.357-.173-.717-.433-1.254-.394-2.121-.399-.511.022-1.744-.105-2.154.097,0,0-.7.365-.7.365-.869.598-2.307.365-3.292.41,0,0-3.166.005-3.166.005-.534.003-1.064-.028-1.383.12,0,0-1.301.801-1.301.801l-.336.208c-.731.462-2.131.279-2.953.341-.74-.018-1.826.136-2.517-.101-.679-.326-1.163-.731-1.772-1.099-.39-.335-1.171-.236-1.665-.249-1.11.002-3.691.006-4.749.008-.423.011-1.039-.075-1.399-.37,0,0-.322-.231-.322-.231,0,0-.644-.461-.644-.461-.558-.309-1.367-.132-2.057-.185-.394.009-1.061-.055-1.408.082-.278.133-.879.633-1.178.836-.69.446-1.32.32-1.817.345-1.354.034-4.082-.058-5.436.049-.284.044-.587.344-.839.524-.664.432-1.497.293-2.211.32-.315-.003-.625-.037-.961-.169-.628-.273-.632-.615-1.256-.69-1.396-.041-3.27.004-4.686-.011-.838-.031-1.881.16-2.588-.477-.128-.094-.344-.296-.512-.338-.336-.117-1.048-.059-1.426-.072-.522-.021-.768.128-1.141.443-.56.483-1.347.432-1.805.431l-3.166-.005c-.602.053-2.448-.172-2.813.226-.159.133-.79.571-.957.705-.67.457-1.489.304-2.219.322-.664-.033-1.493.078-2.131-.178-.503-.231-.941-.657-1.384-.945-.246-.142-.555-.148-.895-.147-1.077-.001-3.658-.006-4.749-.008-.505-.021-1.087.083-1.764-.231-.532-.335-.903-.595-1.363-.896,0,0-.329-.219-.329-.219-.107-.074-.117-.071-.231-.109-.651-.14-1.615-.018-2.24-.039,0,0-1.583.024-1.583.024-.231.003-.461.032-.648.093-.403.194-1.168.72-1.6.976-.617.458-1.44.376-2.145.38-1.166.039-4.306-.097-5.434.055-.42.145-.899.467-1.353.679-.897.301-1.68.107-2.529.141-.735.038-1.771-.063-2.459-.538-.73-.449-1.24-.351-2.112-.36-1.247-.002-3.537-.006-4.75-.008-.557.023-1.138-.139-1.65-.384-.761-.133-2.097-.187-2.855.115-.211.095-.591.22-.861.231-1.424.067-2.766.004-3.999.021,0,0-1.583-.003-1.583-.003-.527.002-1.059-.023-1.458.1-.501.2-1.143.275-1.672.249-.768.002-1.704.011-2.445-.278-.181-.049-.451-.07-.693-.078,0,0-1.572-.006-1.572-.006l-3.166-.005c-1.02.044-2.231-.074-3.21-.341-.919-.093-2.056-.042-3.078-.033l-.733.055c-.516.064-1.031.256-1.581.261-2.047.1-2.321.013-4,.037-1.604-.024-3.148-.03-4.671.3-1.63.132-3.177.054-4.82.026-3.228-.506-6.205-.301-9.482-.388-1.586-.192-3.106-.244-4.703-.19-3.219.349-6.313.116-9.463.24-5.795.165-11.615-.329-17.43-.073,0,0-3.166-.005-3.166-.005-1.072.007-2.08-.033-3.138.102-4.274.129-8.419-.259-12.692-.196-2.719-.289-3.808-.244-6.308-.257-4.172.374-8.45.087-12.642.416-2.107.096-4.203-.34-6.32-.259-2.101-.035-4.239.069-6.323-.221-1.062-.071-2.103.07-3.154.152-1.056.04-2.111.002-3.166.007,1.055-.015,2.112.012,3.164-.038,1.043-.091,2.098-.243,3.157-.182,2.104.271,4.207.144,6.321.159,2.119-.103,4.193.313,6.319.197,3.152-.257,6.321-.276,9.481-.288,1.042-.011,2.079-.267,3.16-.251l3.167-.01c3.174.23,6.294.25,9.489.202,2.12.111,4.206.244,6.298.08,8.487-.268,16.91-.098,25.331-.159,2.262-.052,4.903.132,7.075-.185,1.858-.109,3.755-.085,5.594.137,2.059.055,4.2.002,6.311.023,2.648.278,5.169.52,7.828.298,2.434-.525,5.481-.268,7.947-.33.503-.016,1.016-.029,1.499-.146,1.645-.337,3.146-.284,4.876-.185,1.082.279,1.959.346,3.059.315l3.166-.005h1.594c.466-.03,1.146.194,1.592.295.791.05,1.783.134,2.59-.049.701-.27,1.428-.269,2.063-.259.936-.001,3.759-.007,4.749-.008.552-.003.964.011,1.407-.209.538-.26,1.195-.254,1.692-.258.522.008,1.056-.068,1.704.119.454.203.885.361,1.399.337,1.176-.001,3.642-.006,4.748-.008.519.015,1.046-.052,1.674.087.536.172,1.031.486,1.472.68.373.132.904.103,1.438.116.54-.019,1.738.101,2.189-.083.288-.142.747-.408,1.011-.541.395-.229.926-.28,1.353-.275.924-.002,3.768-.006,4.749-.008.691-.021,1.217.09,1.684-.254.822-.473,1.65-1.264,2.694-1.211.803-.014,2.367-.045,3.166-.058.421-.016,1.02.04,1.395.316.148.107,1.421.929,1.613,1.061.294.156.814.126,1.352.125l3.166-.005c.908.06,2.163-.2,2.988.294.203.133.769.562.98.706.344.298.819.235,1.239.248,0,0,.791.004.791.004.628-.026,1.213.098,1.651-.144.196-.132.748-.565.953-.707.562-.47,1.333-.418,1.795-.42,0,0,1.583-.003,1.583-.003l3.166-.005c.569.006.946.006,1.212-.236.179-.114.334-.285.535-.392.597-.335,1.353-.243,1.988-.259.59-.045,1.291.165,1.75.608.065.044.155.13.231.16.452.187,1.236.08,1.755.105,1.14-.001,2.821,0,3.957.003.58,0,1.285-.034,1.821.399.445.36.605.487,1.124.485.47-.026,1.27.088,1.666-.146.328-.249.731-.603,1.183-.666.702-.133,3.326-.025,4.055-.055,0,0,1.583.003,1.583.003.432-.006.946.044,1.257-.155.103-.094.833-.596.959-.702.326-.299.984-.415,1.403-.397,0,0,.792.008.792.008.845.062,1.778-.169,2.592.367,0,0,.641.463.641.463l.321.231c.124.082.104.079.223.12.562.157,1.66.054,2.221.084,0,0,3.166.005,3.166.005.464.007,1.251-.046,1.73.162.51.239.95.607,1.419.889.463.327.687.46,1.209.444.773-.013,2.386-.038,3.163-.051.503.022.88-.106,1.262-.382.472-.285.853-.535,1.401-.849.67-.271,1.232-.175,1.743-.193l3.166.005,1.583.003c.375.001.665-.003.97-.126,0,0,.351-.181.351-.181,0,0,.705-.364.705-.364.883-.36,1.682-.149,2.551-.182,0,0,.793.015.793.015.292.009.577.035.888.121.379.127.52.237.785.354,0,0,.355.173.355.173.524.287,1.083.185,1.761.206,0,0,1.583.003,1.583.003l3.166.005c.537-.034,1.229.135,1.678.351.728.149,2.111.175,2.85-.08.441-.224,1.185-.283,1.687-.261,0,0,3.166.005,3.166.005l1.583.003c.524-.001,1.068.021,1.472-.08.46-.168,1.145-.274,1.664-.242.755.002,1.684.01,2.447.247,0,0,.714.065.714.065,1.659.055,3.199.01,4.725.028,2.124-.039,4.119.538,6.297.335,1.02-.027,2.09-.346,3.151-.32,2.27-.044,5.601.179,7.849-.253,2.634-.205,5.383.024,7.949.274,2.109.027,4.196-.015,6.348.042,3.144.425,6.32-.056,9.459-.01,2.932.081,6.547-.224,9.494.012,4.204-.029,8.438.178,12.655.025,0,0,3.166.005,3.166.005,1.071-.008,2.082.033,3.14-.093,2.129-.137,4.267.007,6.349.13,3.147-.015,6.349.031,9.487.283,0,0,3.164.022,3.164.022,1.037.029,2.079-.208,3.151-.212,3.178.019,6.329.029,9.492-.194,2.107-.096,4.203.337,6.32.256,2.101.035,4.239-.07,6.323.22,2.117.024,4.195-.275,6.32-.159h0Z" />
  <symbol id="separator" viewBox="0 0 400 3.892">
    <path
      d="m400,1.959c-2.13-.095-4.204.224-6.322.22-2.104-.271-4.207-.144-6.321-.159-2.119.102-4.194-.31-6.32-.195-3.152.254-6.321.273-9.482.284-1.042.011-2.08.26-3.16.243,0,0-3.167.009-3.167.009-3.174-.222-6.296-.238-9.489-.192-2.12-.104-4.208-.225-6.301-.071-9.534.263-19.014.087-28.499.156-2.083-.076-4.236.246-6.323.207-3.162-.143-6.293-.238-9.496-.187-2.65-.243-5.186-.455-7.841-.254-1.604.303-3.227.295-4.78.281,0,0-3.166.005-3.166.005-2.147.175-4.144.527-6.377.295-1.711-.453-4.446-.231-6.237-.274-1.319.1-2.629-.197-3.934-.313-.493.003-1.072-.031-1.53.028-.765.222-1.66.35-2.39.298-1.39.022-4.096-.035-5.494.036-.244.02-.391.084-.669.189-.567.241-1.19.214-1.691.224-.526-.009-1.053.072-1.719-.139-.254-.091-.497-.213-.677-.239-.474-.106-3.346-.029-3.879-.048-1.111-.066-2.457.183-3.522-.192,0,0-.179-.086-.179-.086,0,0-.357-.173-.357-.173-.717-.433-1.254-.394-2.121-.399-.511.022-1.744-.105-2.154.097,0,0-.7.365-.7.365-.869.598-2.307.365-3.292.41,0,0-3.166.005-3.166.005-.534.003-1.064-.028-1.383.12,0,0-1.301.801-1.301.801l-.336.208c-.731.462-2.131.279-2.953.341-.74-.018-1.826.136-2.517-.101-.679-.326-1.163-.731-1.772-1.099-.39-.335-1.171-.236-1.665-.249-1.11.002-3.691.006-4.749.008-.423.011-1.039-.075-1.399-.37,0,0-.322-.231-.322-.231,0,0-.644-.461-.644-.461-.558-.309-1.367-.132-2.057-.185-.394.009-1.061-.055-1.408.082-.278.133-.879.633-1.178.836-.69.446-1.32.32-1.817.345-1.354.034-4.082-.058-5.436.049-.284.044-.587.344-.839.524-.664.432-1.497.293-2.211.32-.315-.003-.625-.037-.961-.169-.628-.273-.632-.615-1.256-.69-1.396-.041-3.27.004-4.686-.011-.838-.031-1.881.16-2.588-.477-.128-.094-.344-.296-.512-.338-.336-.117-1.048-.059-1.426-.072-.522-.021-.768.128-1.141.443-.56.483-1.347.432-1.805.431l-3.166-.005c-.602.053-2.448-.172-2.813.226-.159.133-.79.571-.957.705-.67.457-1.489.304-2.219.322-.664-.033-1.493.078-2.131-.178-.503-.231-.941-.657-1.384-.945-.246-.142-.555-.148-.895-.147-1.077-.001-3.658-.006-4.749-.008-.505-.021-1.087.083-1.764-.231-.532-.335-.903-.595-1.363-.896,0,0-.329-.219-.329-.219-.107-.074-.117-.071-.231-.109-.651-.14-1.615-.018-2.24-.039,0,0-1.583.024-1.583.024-.231.003-.461.032-.648.093-.403.194-1.168.72-1.6.976-.617.458-1.44.376-2.145.38-1.166.039-4.306-.097-5.434.055-.42.145-.899.467-1.353.679-.897.301-1.68.107-2.529.141-.735.038-1.771-.063-2.459-.538-.73-.449-1.24-.351-2.112-.36-1.247-.002-3.537-.006-4.75-.008-.557.023-1.138-.139-1.65-.384-.761-.133-2.097-.187-2.855.115-.211.095-.591.22-.861.231-1.424.067-2.766.004-3.999.021,0,0-1.583-.003-1.583-.003-.527.002-1.059-.023-1.458.1-.501.2-1.143.275-1.672.249-.768.002-1.704.011-2.445-.278-.181-.049-.451-.07-.693-.078,0,0-1.572-.006-1.572-.006l-3.166-.005c-1.02.044-2.231-.074-3.21-.341-.919-.093-2.056-.042-3.078-.033l-.733.055c-.516.064-1.031.256-1.581.261-2.047.1-2.321.013-4,.037-1.604-.024-3.148-.03-4.671.3-1.63.132-3.177.054-4.82.026-3.228-.506-6.205-.301-9.482-.388-1.586-.192-3.106-.244-4.703-.19-3.219.349-6.313.116-9.463.24-5.795.165-11.615-.329-17.43-.073,0,0-3.166-.005-3.166-.005-1.072.007-2.08-.033-3.138.102-4.274.129-8.419-.259-12.692-.196-2.719-.289-3.808-.244-6.308-.257-4.172.374-8.45.087-12.642.416-2.107.096-4.203-.34-6.32-.259-2.101-.035-4.239.069-6.323-.221-1.062-.071-2.103.07-3.154.152-1.056.04-2.111.002-3.166.007,1.055-.015,2.112.012,3.164-.038,1.043-.091,2.098-.243,3.157-.182,2.104.271,4.207.144,6.321.159,2.119-.103,4.193.313,6.319.197,3.152-.257,6.321-.276,9.481-.288,1.042-.011,2.079-.267,3.16-.251l3.167-.01c3.174.23,6.294.25,9.489.202,2.12.111,4.206.244,6.298.08,8.487-.268,16.91-.098,25.331-.159,2.262-.052,4.903.132,7.075-.185,1.858-.109,3.755-.085,5.594.137,2.059.055,4.2.002,6.311.023,2.648.278,5.169.52,7.828.298,2.434-.525,5.481-.268,7.947-.33.503-.016,1.016-.029,1.499-.146,1.645-.337,3.146-.284,4.876-.185,1.082.279,1.959.346,3.059.315l3.166-.005h1.594c.466-.03,1.146.194,1.592.295.791.05,1.783.134,2.59-.049.701-.27,1.428-.269,2.063-.259.936-.001,3.759-.007,4.749-.008.552-.003.964.011,1.407-.209.538-.26,1.195-.254,1.692-.258.522.008,1.056-.068,1.704.119.454.203.885.361,1.399.337,1.176-.001,3.642-.006,4.748-.008.519.015,1.046-.052,1.674.087.536.172,1.031.486,1.472.68.373.132.904.103,1.438.116.54-.019,1.738.101,2.189-.083.288-.142.747-.408,1.011-.541.395-.229.926-.28,1.353-.275.924-.002,3.768-.006,4.749-.008.691-.021,1.217.09,1.684-.254.822-.473,1.65-1.264,2.694-1.211.803-.014,2.367-.045,3.166-.058.421-.016,1.02.04,1.395.316.148.107,1.421.929,1.613,1.061.294.156.814.126,1.352.125l3.166-.005c.908.06,2.163-.2,2.988.294.203.133.769.562.98.706.344.298.819.235,1.239.248,0,0,.791.004.791.004.628-.026,1.213.098,1.651-.144.196-.132.748-.565.953-.707.562-.47,1.333-.418,1.795-.42,0,0,1.583-.003,1.583-.003l3.166-.005c.569.006.946.006,1.212-.236.179-.114.334-.285.535-.392.597-.335,1.353-.243,1.988-.259.59-.045,1.291.165,1.75.608.065.044.155.13.231.16.452.187,1.236.08,1.755.105,1.14-.001,2.821,0,3.957.003.58,0,1.285-.034,1.821.399.445.36.605.487,1.124.485.47-.026,1.27.088,1.666-.146.328-.249.731-.603,1.183-.666.702-.133,3.326-.025,4.055-.055,0,0,1.583.003,1.583.003.432-.006.946.044,1.257-.155.103-.094.833-.596.959-.702.326-.299.984-.415,1.403-.397,0,0,.792.008.792.008.845.062,1.778-.169,2.592.367,0,0,.641.463.641.463l.321.231c.124.082.104.079.223.12.562.157,1.66.054,2.221.084,0,0,3.166.005,3.166.005.464.007,1.251-.046,1.73.162.51.239.95.607,1.419.889.463.327.687.46,1.209.444.773-.013,2.386-.038,3.163-.051.503.022.88-.106,1.262-.382.472-.285.853-.535,1.401-.849.67-.271,1.232-.175,1.743-.193l3.166.005,1.583.003c.375.001.665-.003.97-.126,0,0,.351-.181.351-.181,0,0,.705-.364.705-.364.883-.36,1.682-.149,2.551-.182,0,0,.793.015.793.015.292.009.577.035.888.121.379.127.52.237.785.354,0,0,.355.173.355.173.524.287,1.083.185,1.761.206,0,0,1.583.003,1.583.003l3.166.005c.537-.034,1.229.135,1.678.351.728.149,2.111.175,2.85-.08.441-.224,1.185-.283,1.687-.261,0,0,3.166.005,3.166.005l1.583.003c.524-.001,1.068.021,1.472-.08.46-.168,1.145-.274,1.664-.242.755.002,1.684.01,2.447.247,0,0,.714.065.714.065,1.659.055,3.199.01,4.725.028,2.124-.039,4.119.538,6.297.335,1.02-.027,2.09-.346,3.151-.32,2.27-.044,5.601.179,7.849-.253,2.634-.205,5.383.024,7.949.274,2.109.027,4.196-.015,6.348.042,3.144.425,6.32-.056,9.459-.01,2.932.081,6.547-.224,9.494.012,4.204-.029,8.438.178,12.655.025,0,0,3.166.005,3.166.005,1.071-.008,2.082.033,3.14-.093,2.129-.137,4.267.007,6.349.13,3.147-.015,6.349.031,9.487.283,0,0,3.164.022,3.164.022,1.037.029,2.079-.208,3.151-.212,3.178.019,6.329.029,9.492-.194,2.107-.096,4.203.337,6.32.256,2.101.035,4.239-.07,6.323.22,2.117.024,4.195-.275,6.32-.159h0Z" />
  </symbol>
</svg>